<?xml version="1.0" encoding="UTF-8" standalone="no" ?>
<!DOCTYPE svg PUBLIC "-//W3C//DTD SVG 1.1//EN" "http://www.w3.org/Graphics/SVG/1.1/DTD/svg11.dtd">
<svg xmlns="http://www.w3.org/2000/svg" xmlns:xlink="http://www.w3.org/1999/xlink" version="1.1" width="525" height="525" viewBox="0 0 500 500" xml:space="preserve">
<desc>Created with Fabric.js 3.6.3</desc>
<defs>
</defs>
<rect x="0" y="0" width="100%" height="100%" fill="rgba(0, 0, 0, 0)"></rect>
<g transform="matrix(1 0 0 1 561.29 14.83)" id="ysOIZma01D2geOvfUoYEf"  >
<path style="stroke: rgb(0,0,0); stroke-width: 1; stroke-dasharray: none; stroke-linecap: round; stroke-dashoffset: 0; stroke-linejoin: round; stroke-miterlimit: 10; fill: none; fill-rule: nonzero; opacity: 1;" vector-effect="non-scaling-stroke"  transform=" translate(-558.29, 9.17)" d="M 558.2911895415684 -9.170852983542545 L 558.2931895415684 -9.170852983542545" stroke-linecap="round" />
</g>
<g transform="matrix(0.94 0 0 0.94 212.35 82.91)" id="MwR7qH84JTV8DmvftYa9B"  >
<path style="stroke: rgb(255,255,255); stroke-width: 1; stroke-dasharray: none; stroke-linecap: round; stroke-dashoffset: 0; stroke-linejoin: round; stroke-miterlimit: 10; fill: none; fill-rule: nonzero; opacity: 1;" vector-effect="non-scaling-stroke"  transform=" translate(-218.27, -92.56)" d="M 218.27098901790143 92.55988197726354 L 218.27298901790144 92.55988197726354" stroke-linecap="round" />
</g>
<g transform="matrix(0.39 0 0 0.39 155.87 276.9)" id="3"  >
<path style="stroke: rgb(255,255,255); stroke-width: 1; stroke-dasharray: none; stroke-linecap: butt; stroke-dashoffset: 0; stroke-linejoin: miter; stroke-miterlimit: 4; fill: rgb(255,255,255); fill-opacity: 0; fill-rule: nonzero; opacity: 1;" vector-effect="non-scaling-stroke"  transform=" translate(0, 0)" d="M 0 -100.40435 L 0 100.40435" stroke-linecap="round" />
</g>
<g transform="matrix(0.45 0 0 0.45 134.41 213.14)" id="65"  >
<path style="stroke: rgb(255,255,255); stroke-width: 1; stroke-dasharray: none; stroke-linecap: round; stroke-dashoffset: 0; stroke-linejoin: round; stroke-miterlimit: 10; fill: none; fill-rule: nonzero; opacity: 1;" vector-effect="non-scaling-stroke"  transform=" translate(-288.27, -136.99)" d="M 335.8210172181778 228.56875721081138 Q 335.82091721817784 228.56865721081138 335.54917808774303 228.02517894994182 Q 335.2774389573083 227.48170068907226 334.4622215660039 226.9382224282027 Q 333.6470041746996 226.39474416733313 332.0165693920909 224.49257025428966 Q 330.3861346094822 222.59039634124616 328.48396069643877 221.23170068907226 Q 326.5817867833953 219.87300503689835 323.59265634861265 217.4273528629853 Q 320.60352591383 214.98170068907226 317.8861346094822 213.07952677602879 Q 315.1687433051344 211.1773528629853 308.64700417469965 206.28604851515922 Q 302.12526504426484 201.39474416733313 297.7774389573083 198.6773528629853 Q 293.4296128703518 195.95996155863747 289.0817867833953 193.5143093847244 Q 284.7339606964387 191.06865721081138 280.657873739917 188.89474416733313 Q 276.5817867833953 186.72083112385488 273.0491780877431 184.8186572108114 Q 269.5165693920909 182.9164832977679 267.34265634861265 181.82952677602879 Q 265.1687433051344 180.74257025428966 261.63613460948227 178.84039634124616 Q 258.1035259138301 176.9382224282027 256.2013520007866 176.12300503689835 Q 254.2991780877431 175.307787645594 252.6687433051344 174.76430938472444 Q 251.03830852252568 174.22083112385488 249.67961287035178 173.6773528629853 Q 248.32091721817787 173.13387460211572 246.96222156600396 172.59039634124616 Q 245.60352591383005 172.0469180803766 244.24483026165615 171.50343981950704 Q 242.8861346094822 170.95996155863747 241.7991780877431 170.14474416733313 Q 240.71222156600396 169.32952677602879 240.44048243556918 169.32952677602879 Q 240.1687433051344 169.32952677602879 239.89700417469962 169.057787645594 Q 239.62526504426484 168.78604851515922 239.35352591383005 168.51430938472444 Q 239.08178678339527 168.24257025428966 238.81004765296046 167.97083112385488 Q 238.53830852252568 167.6990919934201 238.2665693920909 167.6990919934201 Q 237.99483026165612 167.6990919934201 237.99483026165612 167.4273528629853 Q 237.99483026165612 167.1556137325505 238.2665693920909 166.61213547168094 Q 238.53830852252568 166.06865721081138 239.35352591383003 164.4382224282027 Q 240.1687433051344 162.807787645594 241.7991780877431 160.36213547168097 Q 243.42961287035178 157.9164832977679 249.407873739917 150.03604851515922 Q 255.3861346094822 142.15561373255053 261.09265634861265 134.54691808037663 Q 266.7991780877431 126.9382224282027 274.407873739917 116.88387460211575 Q 282.0165693920909 106.8295267760288 289.6252650442648 97.59039634124619 Q 297.2339606964387 88.35126590646358 303.4839606964387 81.55778764559402 Q 309.7339606964387 74.76430938472446 315.9839606964387 68.24257025428967 Q 322.2339606964387 61.720831123854886 326.31004765296046 57.916483297767925 Q 330.3861346094822 54.11213547168097 332.28830852252565 52.209961558637495 Q 334.19048243556915 50.30778764559402 335.0056998268735 49.492570254289674 Q 335.82091721817784 48.67735286298532 336.09265634861265 48.13387460211575 Q 336.3643954790474 47.59039634124619 336.907873739917 47.31865721081141 Q 337.4513520007866 47.04691808037663 337.4513520007866 46.775178949941846 Q 337.4513520007866 46.503439819507065 337.7230911312214 46.231700689072284 Q 337.99483026165615 45.959961558637495 338.2665693920909 45.688222428202714 L 338.5384085225257 45.41638329776793" stroke-linecap="round" />
</g>
<g transform="matrix(-0.2 -0.16 -0.16 0.2 139.49 335.67)" id="waHULwO41sxkSVJWnzXLS"  >
<path style="stroke: rgb(255,255,255); stroke-width: 1; stroke-dasharray: none; stroke-linecap: butt; stroke-dashoffset: 0; stroke-linejoin: miter; stroke-miterlimit: 4; fill: rgb(255,255,255); fill-opacity: 0; fill-rule: nonzero; opacity: 1;" vector-effect="non-scaling-stroke"  transform=" translate(0, 0)" d="M 0 -100.40435 L 0 100.40435" stroke-linecap="round" />
</g>
<g transform="matrix(-0.19 0.17 0.17 0.19 172.78 335.67)" id="h4t_bIph37ROGvRqoiAfu"  >
<path style="stroke: rgb(255,255,255); stroke-width: 1; stroke-dasharray: none; stroke-linecap: butt; stroke-dashoffset: 0; stroke-linejoin: miter; stroke-miterlimit: 4; fill: rgb(255,255,255); fill-opacity: 0; fill-rule: nonzero; opacity: 1;" vector-effect="non-scaling-stroke"  transform=" translate(0, 0)" d="M 0 -100.40435 L 0 100.40435" stroke-linecap="round" />
</g>
<g transform="matrix(2.71 0 0 1.2 197.47 133.36)" id="MFRr75wOCErOsPlFA2gQQ"  >
<path style="stroke: rgb(255,255,255); stroke-width: 1; stroke-dasharray: none; stroke-linecap: butt; stroke-dashoffset: 0; stroke-linejoin: miter; stroke-miterlimit: 4; fill: rgb(255,255,255); fill-rule: nonzero; opacity: 1;" vector-effect="non-scaling-stroke"  transform=" translate(0, 0)" d="M -50 -50 L 50 -50 L 50 50 L -50 50 z" stroke-linecap="round" />
</g>
<g transform="matrix(0.71 0 0 0.36 247.96 131.95)" id="HhzgArzcmfaGB9QnZbSPg"  >
<path style="stroke: rgb(0,0,0); stroke-width: 1; stroke-dasharray: none; stroke-linecap: butt; stroke-dashoffset: 0; stroke-linejoin: miter; stroke-miterlimit: 4; fill: rgb(255,255,255); fill-opacity: 0; fill-rule: nonzero; opacity: 1;" vector-effect="non-scaling-stroke"  transform=" translate(0, 0)" d="M -50 -50 L 50 -50 L 50 50 L -50 50 z" stroke-linecap="round" />
</g>
<g transform="matrix(0.31 0 0 0.36 268.16 132.04)" id="1"  >
<path style="stroke: rgb(255,255,255); stroke-width: 0; stroke-dasharray: none; stroke-linecap: butt; stroke-dashoffset: 0; stroke-linejoin: miter; stroke-miterlimit: 4; fill: rgb(57,228,15); fill-rule: nonzero; opacity: 1;" vector-effect="non-scaling-stroke"  transform=" translate(0, 0)" d="M -50 -50 L 50 -50 L 50 50 L -50 50 z" stroke-linecap="round" />
</g>
<g transform="matrix(-0.71 0 0 0.05 214.35 131.95)" id="3"  >
<path style="stroke: rgb(0,0,0); stroke-width: 1; stroke-dasharray: none; stroke-linecap: butt; stroke-dashoffset: 0; stroke-linejoin: miter; stroke-miterlimit: 4; fill: rgb(85,85,85); fill-opacity: 0; fill-rule: nonzero; opacity: 1;" vector-effect="non-scaling-stroke"  transform=" translate(0, 0)" d="M -50 -50 L 50 -50 L 50 50 L -50 50 z" stroke-linecap="round" />
</g>
<g transform="matrix(-0.05 0 0 0.29 178.75 132.04)" id="5"  >
<path style="stroke: rgb(0,0,0); stroke-width: 1; stroke-dasharray: none; stroke-linecap: butt; stroke-dashoffset: 0; stroke-linejoin: miter; stroke-miterlimit: 4; fill: rgb(175,173,173); fill-rule: nonzero; opacity: 1;" vector-effect="non-scaling-stroke"  transform=" translate(0, 0)" d="M -50 -50 L 50 -50 L 50 50 L -50 50 z" stroke-linecap="round" />
</g>
<g transform="matrix(-0.23 0 0 0.03 295.31 131.95)" id="Rf3x6eyFEIbiC6x7Sb4kX"  >
<path style="stroke: rgb(255,255,255); stroke-width: 0; stroke-dasharray: none; stroke-linecap: butt; stroke-dashoffset: 0; stroke-linejoin: miter; stroke-miterlimit: 4; fill: rgb(166,166,166); fill-rule: nonzero; opacity: 1;" vector-effect="non-scaling-stroke"  transform=" translate(0, 0)" d="M -50 -50 L 50 -50 L 50 50 L -50 50 z" stroke-linecap="round" />
</g>
<g transform="matrix(-0.04 0 0 0.35 249.94 131.95)" id="waP72HNAru_F_0kgTi7hv"  >
<path style="stroke: rgb(255,255,255); stroke-width: 0; stroke-dasharray: none; stroke-linecap: butt; stroke-dashoffset: 0; stroke-linejoin: miter; stroke-miterlimit: 4; fill: rgb(0,0,0); fill-rule: nonzero; opacity: 1;" vector-effect="non-scaling-stroke"  transform=" translate(0, 0)" d="M -50 -50 L 50 -50 L 50 50 L -50 50 z" stroke-linecap="round" />
</g>
<g transform="matrix(0.13 0 0 0.04 312.04 131.95)" id="ukBw7-3LzCKpZSfvdDSCG"  >
<path style="stroke: rgb(255,255,255); stroke-width: 0; stroke-dasharray: none; stroke-linecap: butt; stroke-dashoffset: 0; stroke-linejoin: miter; stroke-miterlimit: 4; fill: rgb(166,166,166); fill-rule: nonzero; opacity: 1;" vector-effect="non-scaling-stroke"  transform=" translate(-40, -40)" d="M 0 0 L 80 80 L 0 80 L 0 0 z" stroke-linecap="round" />
</g>
<g transform="matrix(-0.04 0 0 0.57 211.68 131.95)" id="bXNzW0T7FShLZXeiVzpMc"  >
<path style="stroke: rgb(255,255,255); stroke-width: 0; stroke-dasharray: none; stroke-linecap: butt; stroke-dashoffset: 0; stroke-linejoin: miter; stroke-miterlimit: 4; fill: rgb(0,0,0); fill-rule: nonzero; opacity: 1;" vector-effect="non-scaling-stroke"  transform=" translate(0, 0)" d="M -50 -50 L 50 -50 L 50 50 L -50 50 z" stroke-linecap="round" />
</g>
<g transform="matrix(0.12 0 0 0.36 278.01 131.95)" id="toRMHwTm2kiS5HBVJgnyl"  >
<path style="stroke: rgb(255,255,255); stroke-width: 0.1; stroke-dasharray: none; stroke-linecap: butt; stroke-dashoffset: 0; stroke-linejoin: miter; stroke-miterlimit: 4; fill: rgb(57,228,15); fill-opacity: 0; fill-rule: nonzero; opacity: 1;" vector-effect="non-scaling-stroke"  transform=" translate(0, 0)" d="M -50 -50 L 50 -50 L 50 50 L -50 50 z" stroke-linecap="round" />
</g>
<g transform="matrix(0.12 0 0 0.36 266.9 131.95)" id="taE1aFB2VsNEjSNsjJHat"  >
<path style="stroke: rgb(255,255,255); stroke-width: 0.1; stroke-dasharray: none; stroke-linecap: butt; stroke-dashoffset: 0; stroke-linejoin: miter; stroke-miterlimit: 4; fill: rgb(57,228,15); fill-opacity: 0; fill-rule: nonzero; opacity: 1;" vector-effect="non-scaling-stroke"  transform=" translate(0, 0)" d="M -50 -50 L 50 -50 L 50 50 L -50 50 z" stroke-linecap="round" />
</g>
<g transform="matrix(0.09 0 0 0.36 256.75 131.95)" id="VcojTISVnNNsy5iiTVUlI"  >
<path style="stroke: rgb(255,255,255); stroke-width: 0.1; stroke-dasharray: none; stroke-linecap: butt; stroke-dashoffset: 0; stroke-linejoin: miter; stroke-miterlimit: 4; fill: rgb(57,228,15); fill-opacity: 0; fill-rule: nonzero; opacity: 1;" vector-effect="non-scaling-stroke"  transform=" translate(0, 0)" d="M -50 -50 L 50 -50 L 50 50 L -50 50 z" stroke-linecap="round" />
</g>
<g transform="matrix(0.09 0 0 0.36 247.45 131.95)" id="5"  >
<path style="stroke: rgb(255,255,255); stroke-width: 0.1; stroke-dasharray: none; stroke-linecap: butt; stroke-dashoffset: 0; stroke-linejoin: miter; stroke-miterlimit: 4; fill: rgb(255,255,255); fill-opacity: 0; fill-rule: nonzero; opacity: 1;" vector-effect="non-scaling-stroke"  transform=" translate(0, 0)" d="M -50 -50 L 50 -50 L 50 50 L -50 50 z" stroke-linecap="round" />
</g>
<g transform="matrix(0.09 0 0 0.36 238.07 131.86)" id="pZsJV-Fm_iKLIa21zzNq7"  >
<path style="stroke: rgb(0,0,0); stroke-width: 0.1; stroke-dasharray: none; stroke-linecap: butt; stroke-dashoffset: 0; stroke-linejoin: miter; stroke-miterlimit: 4; fill: rgb(255,255,255); fill-opacity: 0; fill-rule: nonzero; opacity: 1;" vector-effect="non-scaling-stroke"  transform=" translate(0, 0)" d="M -50 -50 L 50 -50 L 50 50 L -50 50 z" stroke-linecap="round" />
</g>
<g transform="matrix(0.09 0 0 0.36 228.61 131.89)" id="Nk3LyCD0Uh21sXY__eX5T"  >
<path style="stroke: rgb(0,0,0); stroke-width: 0.1; stroke-dasharray: none; stroke-linecap: butt; stroke-dashoffset: 0; stroke-linejoin: miter; stroke-miterlimit: 4; fill: rgb(255,255,255); fill-opacity: 0; fill-rule: nonzero; opacity: 1;" vector-effect="non-scaling-stroke"  transform=" translate(0, 0)" d="M -50 -50 L 50 -50 L 50 50 L -50 50 z" stroke-linecap="round" />
</g>
<g transform="matrix(0.66 0 0 0.66 125.99 133.36)" id="ufCZq6yhQZgilqUDN5ii7"  >
<path style="stroke: rgb(255,255,255); stroke-width: 1; stroke-dasharray: none; stroke-linecap: butt; stroke-dashoffset: 0; stroke-linejoin: miter; stroke-miterlimit: 4; fill: rgb(247,47,58); fill-rule: nonzero; opacity: 1;" vector-effect="non-scaling-stroke"  transform=" translate(-40, -40)" d="M 63.366 80 L 40 56.634 L 16.634 80 L 0 63.366 L 23.366 40 L 0 16.634 L 16.634 0 L 40 23.366 L 63.366 0 L 80 16.634 L 56.634 40 L 80 63.366 L 63.366 80 z" stroke-linecap="round" />
</g>
<g transform="matrix(0.45 0 0 0.45 181.72 218.76)" id="ZsS_XK8O9GD5zScM4tZKw"  >
<path style="stroke: rgb(255,255,255); stroke-width: 1; stroke-dasharray: none; stroke-linecap: round; stroke-dashoffset: 0; stroke-linejoin: round; stroke-miterlimit: 10; fill: none; fill-rule: nonzero; opacity: 1;" vector-effect="non-scaling-stroke"  transform=" translate(-395.06, -150.58)" d="M 337.4512520007866 229.6557137325505 Q 337.4513520007866 229.6556137325505 337.7230911312214 229.6556137325505 Q 337.99483026165615 229.6556137325505 338.8100476529605 229.11213547168094 Q 339.62526504426484 228.56865721081138 342.34265634861265 227.48170068907226 Q 345.06004765296046 226.39474416733313 349.1361346094822 225.03604851515922 Q 353.21222156600396 223.6773528629853 365.44048243556915 219.32952677602879 Q 377.6687433051344 214.98170068907226 387.1796128703518 211.4490919934201 Q 396.69048243556915 207.9164832977679 403.2122215660039 205.47083112385485 Q 409.7339606964387 203.02517894994182 418.7013520007865 199.49257025428966 Q 427.6687433051344 195.95996155863747 433.64700417469965 193.24257025428966 Q 439.62526504426484 190.52517894994182 444.5165693920909 188.35126590646354 Q 449.40787373991697 186.1773528629853 450.7665693920909 185.36213547168094 Q 452.12526504426484 184.5469180803766 452.39700417469965 184.5469180803766 Q 452.6687433051344 184.5469180803766 452.6687433051344 184.27517894994182 Q 452.6687433051344 184.00343981950704 452.6687433051344 183.73170068907226 Q 452.6687433051344 183.45996155863747 452.39700417469965 182.37300503689835 Q 452.12526504426484 181.28604851515922 451.5817867833953 179.9273528629853 Q 451.0383085225257 178.56865721081138 449.6796128703518 174.22083112385485 Q 448.32091721817784 169.87300503689835 446.9622215660039 166.34039634124616 Q 445.60352591383 162.807787645594 443.7013520007865 157.9164832977679 Q 441.7991780877431 153.02517894994182 439.89700417469965 148.13387460211572 Q 437.99483026165615 143.24257025428966 435.2774389573083 135.0903963412462 Q 432.56004765296046 126.9382224282027 431.2013520007865 123.40561373255053 Q 429.84265634861265 119.87300503689836 428.21222156600396 116.06865721081141 Q 426.5817867833953 112.26430938472446 425.22309113122134 110.09039634124619 Q 423.8643954790474 107.91648329776793 423.04917808774303 106.28604851515922 Q 422.2339606964387 104.65561373255053 421.69048243556915 103.84039634124619 Q 421.1470041746996 103.02517894994185 420.60352591383 102.2099615586375 Q 420.06004765296046 101.39474416733314 419.5165693920909 100.03604851515922 Q 418.97309113122134 98.67735286298532 418.7013520007865 98.13387460211575 Q 418.4296128703518 97.59039634124619 418.157873739917 97.04691808037663 Q 417.8861346094822 96.50343981950707 417.6143954790474 96.23170068907228 Q 417.34265634861265 95.95996155863749 417.0709172181779 95.41648329776793 Q 416.7991780877431 94.87300503689836 416.5274389573083 94.60126590646358 Q 416.2556998268735 94.3295267760288 415.98396069643877 93.78604851515924 Q 415.71222156600396 93.24257025428967 415.71222156600396 92.97083112385488 Q 415.71222156600396 92.6990919934201 415.44048243556915 92.42735286298532 Q 415.1687433051344 92.15561373255053 414.89700417469965 91.88387460211575 Q 414.62526504426484 91.61213547168097 414.62526504426484 91.34039634124619 Q 414.62526504426484 91.06865721081141 414.35352591383 90.79691808037663 Q 414.0817867833953 90.52517894994185 414.0817867833953 89.98170068907228 Q 414.0817867833953 89.4382224282027 413.8100476529605 89.4382224282027 Q 413.5383085225257 89.4382224282027 413.5383085225257 89.16648329776793 Q 413.5383085225257 88.89474416733314 413.2665693920909 88.62300503689836 Q 412.99483026165615 88.35126590646358 412.99483026165615 88.0795267760288 Q 412.99483026165615 87.80778764559402 412.72309113122134 87.80778764559402 Q 412.4513520007865 87.80778764559402 412.4513520007865 87.53604851515924 Q 412.4513520007865 87.26430938472446 412.1796128703518 87.26430938472446 Q 411.90787373991697 87.26430938472446 411.90787373991697 86.99257025428967 Q 411.90787373991697 86.7208311238549 411.63613460948216 86.4490919934201 Q 411.3643954790474 86.17735286298532 411.09265634861265 85.90561373255053 Q 410.82091721817784 85.63387460211575 410.54917808774303 85.09039634124619 Q 410.2774389573083 84.54691808037663 410.0056998268735 84.00343981950707 Q 409.7339606964387 83.45996155863749 409.4622215660039 82.91648329776793 Q 409.19048243556915 82.37300503689836 408.6470041746996 81.55778764559402 Q 408.10352591383 80.74257025428967 407.8317867833953 79.92735286298532 Q 407.56004765296046 79.11213547168097 407.28830852252565 78.56865721081141 Q 407.0165693920909 78.02517894994185 406.47309113122134 77.48170068907228 Q 405.9296128703518 76.9382224282027 405.657873739917 76.39474416733314 Q 405.3861346094822 75.85126590646358 405.1143954790474 75.5795267760288 Q 404.84265634861265 75.30778764559402 404.5709172181779 74.49257025428966 Q 404.2991780877431 73.67735286298532 404.0274389573083 73.40561373255053 Q 403.7556998268735 73.13387460211575 403.7556998268735 72.86213547168097 Q 403.7556998268735 72.59039634124619 403.7556998268735 72.31865721081141 Q 403.7556998268735 72.04691808037663 403.48396069643877 71.77517894994185 L 403.212121566004 71.50333981950706" stroke-linecap="round" />
</g>
<g transform="matrix(0 0.59 -0.59 0 241.66 198.68)" id="MEItYn8xOssuWuomzszDP"  >
<linearGradient id="SVGID_SVGID_373_5" gradientUnits="userSpaceOnUse" gradientTransform="matrix(1 0 0 1 -50 -50)"  x1="0" y1="50" x2="100" y2="50">
<stop offset="0%" style="stop-color:rgb(247,26,26);stop-opacity: 1"/>
<stop offset="51.07695005206525%" style="stop-color:rgb(228,71,71);stop-opacity: 1"/>
<stop offset="100%" style="stop-color:rgb(255,250,250);stop-opacity: 1"/>
</linearGradient>
<path style="stroke: rgb(255,255,255); stroke-width: 1; stroke-dasharray: none; stroke-linecap: butt; stroke-dashoffset: 0; stroke-linejoin: miter; stroke-miterlimit: 4; fill: url(#SVGID_SVGID_373_5); fill-rule: nonzero; opacity: 1;" vector-effect="non-scaling-stroke"  transform=" translate(0, 0)" d="M 0 -50 C 27.6 -50 50 -27.6 50 0 C 50 27.6 27.6 50 0 50 C -27.6 50 -50 27.6 -50 0 C -50 -27.6 -27.6 -50 0 -50 z" stroke-linecap="round" />
</g>
<g transform="matrix(0.52 0 0 0.52 242.6 278.93)" id="tit1XnvdfBmwgeoDbEWZy"  >
<path style="stroke: rgb(255,255,255); stroke-width: 1; stroke-dasharray: none; stroke-linecap: butt; stroke-dashoffset: 0; stroke-linejoin: miter; stroke-miterlimit: 4; fill: rgb(255,255,255); fill-opacity: 0; fill-rule: nonzero; opacity: 1;" vector-effect="non-scaling-stroke"  transform=" translate(0, 0)" d="M 0 -100.40435 L 0 100.40435" stroke-linecap="round" />
</g>
<g transform="matrix(-0.27 -0.22 -0.22 0.27 220.04 357.59)" id="OGJ6iw9uAZWtN0eoOiB6O"  >
<path style="stroke: rgb(255,255,255); stroke-width: 1; stroke-dasharray: none; stroke-linecap: butt; stroke-dashoffset: 0; stroke-linejoin: miter; stroke-miterlimit: 4; fill: rgb(255,255,255); fill-opacity: 0; fill-rule: nonzero; opacity: 1;" vector-effect="non-scaling-stroke"  transform=" translate(0, 0)" d="M 0 -100.40435 L 0 100.40435" stroke-linecap="round" />
</g>
<g transform="matrix(-0.25 0.22 0.22 0.25 264.01 357.59)" id="mJzWOqcZp_9laggUquhYe"  >
<path style="stroke: rgb(255,255,255); stroke-width: 1; stroke-dasharray: none; stroke-linecap: butt; stroke-dashoffset: 0; stroke-linejoin: miter; stroke-miterlimit: 4; fill: rgb(255,255,255); fill-opacity: 0; fill-rule: nonzero; opacity: 1;" vector-effect="non-scaling-stroke"  transform=" translate(0, 0)" d="M 0 -100.40435 L 0 100.40435" stroke-linecap="round" />
</g>
<g transform="matrix(0.47 0 0 0.47 327.77 240.52)" id="GS6p3WpYa7Y1HSTQbZbez"  >
<path style="stroke: rgb(255,255,255); stroke-width: 1; stroke-dasharray: none; stroke-linecap: butt; stroke-dashoffset: 0; stroke-linejoin: miter; stroke-miterlimit: 4; fill: rgb(255,255,255); fill-opacity: 0; fill-rule: nonzero; opacity: 1;" vector-effect="non-scaling-stroke"  transform=" translate(0, 0)" d="M 0 -100.40435 L 0 100.40435" stroke-linecap="round" />
</g>
<g transform="matrix(-0.24 -0.2 -0.2 0.24 307.29 311.93)" id="tN3d2MfeosMqaHQQ8s1Ug"  >
<path style="stroke: rgb(255,255,255); stroke-width: 1; stroke-dasharray: none; stroke-linecap: butt; stroke-dashoffset: 0; stroke-linejoin: miter; stroke-miterlimit: 4; fill: rgb(255,255,255); fill-opacity: 0; fill-rule: nonzero; opacity: 1;" vector-effect="non-scaling-stroke"  transform=" translate(0, 0)" d="M 0 -100.40435 L 0 100.40435" stroke-linecap="round" />
</g>
<g transform="matrix(-0.23 0.2 0.2 0.23 347.21 311.93)" id="xzj_ZqsGWlU9kbgVPaQRA"  >
<path style="stroke: rgb(255,255,255); stroke-width: 1; stroke-dasharray: none; stroke-linecap: butt; stroke-dashoffset: 0; stroke-linejoin: miter; stroke-miterlimit: 4; fill: rgb(255,255,255); fill-opacity: 0; fill-rule: nonzero; opacity: 1;" vector-effect="non-scaling-stroke"  transform=" translate(0, 0)" d="M 0 -100.40435 L 0 100.40435" stroke-linecap="round" />
</g>
<g transform="matrix(0.94 0 0 0.94 304.08 191.85)" id="mVssh9Diau9Hh3ys0s_YH"  >
<path style="stroke: rgb(255,255,255); stroke-width: 1; stroke-dasharray: none; stroke-linecap: round; stroke-dashoffset: 0; stroke-linejoin: round; stroke-miterlimit: 10; fill: none; fill-rule: nonzero; opacity: 1;" vector-effect="non-scaling-stroke"  transform=" translate(-316.16, -208.81)" d="M 342.5628524629167 231.2795852187046 Q 342.5618524629167 231.2785852187046 342.00005471010775 231.2785852187046 Q 341.4382569572988 231.2785852187046 339.19106594606285 230.15498971308662 Q 336.9438749348269 229.03139420746865 335.2584816763999 228.46959645465967 Q 333.57308841797294 227.90779870185068 330.764099653928 226.22240544342372 Q 327.95511088988303 224.53701218499677 326.83151538426506 223.97521443218778 Q 325.7079198786471 223.4134166793788 324.0225266202201 222.2898211737608 Q 322.3371333617931 221.1662256681428 321.77533560898416 220.04263016252483 Q 321.2135378561752 218.91903465690686 320.08994235055724 218.35723690409787 Q 318.96634684493927 217.7954391512889 317.8427513393213 216.11004589286193 Q 316.7191558337033 214.42465263443498 313.91016706965837 211.61566387039002 Q 311.1011783056134 208.80667510634507 309.97758279999545 207.6830796007271 Q 308.8539872943775 206.55948409510913 307.1685940359505 204.31229308387316 Q 305.4832007775235 202.06510207263722 304.35960527190554 200.94150656701925 Q 303.23600976628757 199.81791106140125 302.1124142606696 198.69431555578328 Q 300.9888187550516 197.5707200501653 300.4270210022426 196.4471245445473 Q 299.8652232494336 195.32352903892934 298.7416277438156 194.19993353331137 Q 297.61803223819766 193.0763380276934 297.05623448538864 191.95274252207543 Q 296.49443673257963 190.82914701645743 295.9326389797707 190.26734926364844 Q 295.3708412269617 189.70555151083946 294.8090434741527 189.70555151083946 Q 294.2472457213437 189.70555151083946 294.2472457213437 189.14375375803047 Q 294.2472457213437 188.58195600522149 293.68544796853473 188.0201582524125 Q 293.1236502157258 187.4583604996035 292.56185246291676 187.4583604996035 Q 292.00005471010775 187.4583604996035 290.8764592044898 186.8965627467945 L 289.75186369887183 186.3337649939855" stroke-linecap="round" />
</g>
<g transform="matrix(0.94 0 0 0.94 260.64 311.15)" id="4"  >
<path style="stroke: rgb(255,255,255); stroke-width: 1; stroke-dasharray: none; stroke-linecap: round; stroke-dashoffset: 0; stroke-linejoin: round; stroke-miterlimit: 10; fill: none; fill-rule: nonzero; opacity: 1;" vector-effect="non-scaling-stroke"  transform=" translate(-264.47, -321.17)" d="M 71.77433560898422 355.99868634230006 Q 71.77533560898422 355.9976863423001 72.3371333617932 355.9976863423001 Q 72.89893111460219 355.9976863423001 74.58432437302915 355.4358885894911 Q 76.2697176314561 354.87409083668217 77.39331313707407 354.31229308387316 Q 78.51690864269204 353.75049533106414 83.01129066516395 352.06510207263716 Q 87.50567268763587 350.3797088142102 92.00005471010778 349.2561133085922 Q 96.49443673257969 348.13251780297423 108.29218954156843 345.8853267917383 Q 120.08994235055718 343.63813578050235 127.95511088988303 341.95274252207537 Q 135.82027942920888 340.2673492636484 145.37084122696172 338.58195600522146 Q 154.92140302471455 336.89656274679453 166.71915583370333 334.0875739827496 Q 178.5169086426921 331.2785852187046 191.4382569572988 327.90779870185065 Q 204.35960527190548 324.5370121849967 215.03376257527628 322.28982117376074 Q 225.7079198786471 320.0426301625248 248.17982999100667 314.9864503872439 Q 270.65174010336625 309.930270611963 284.13488617078195 306.5594840951091 Q 297.61803223819766 303.1886975782552 308.8539872943774 300.94150656701925 Q 320.0899423505572 298.6943155557833 330.764099653928 296.4471245445473 Q 341.4382569572988 294.1999335333113 349.30342549662464 293.07633802769334 Q 357.1685940359505 291.95274252207537 363.34836931684936 290.8291470164574 Q 369.5281445977482 289.7055515108394 376.83151538426506 288.58195600522146 Q 384.1348861707819 287.4583604996035 389.1910659460628 286.8965627467945 Q 394.2472457213437 286.33476499398546 399.3034254966246 286.33476499398546 Q 404.3596052719055 286.33476499398546 407.16859403595043 286.33476499398546 Q 409.9775827999954 286.33476499398546 413.9101670696583 286.33476499398546 Q 417.84275133932124 286.33476499398546 420.0899423505572 286.33476499398546 Q 422.3371333617931 286.33476499398546 425.7079198786471 286.8965627467945 Q 429.07870639550106 287.4583604996035 430.764099653928 287.4583604996035 Q 432.4494929123549 287.4583604996035 434.69668392359085 287.4583604996035 Q 436.9438749348268 287.4583604996035 439.75286369887175 287.4583604996035 Q 442.5618524629167 287.4583604996035 443.6854479685347 288.0201582524125 Q 444.80904347415265 288.5819560052215 446.49443673257963 288.5819560052215 Q 448.1798299910066 288.5819560052215 449.3034254966246 288.5819560052215 Q 450.42702100224255 288.5819560052215 450.98881875505157 289.14375375803047 Q 451.5506165078606 289.7055515108394 452.11241426066954 290.26734926364844 Q 452.6742120134785 290.82914701645745 453.2360097662875 290.82914701645745 Q 453.7978075190965 290.82914701645745 453.7978075190965 291.3909447692664 Q 453.7978075190965 291.95274252207537 454.3596052719055 291.95274252207537 Q 454.92140302471444 291.95274252207537 454.92140302471444 292.5145402748844 Q 454.92140302471444 293.0763380276934 455.48320077752345 293.0763380276934 Q 456.04499853033246 293.0763380276934 456.04499853033246 293.63813578050235 Q 456.04499853033246 294.1999335333113 456.6067962831415 294.7617312861203 L 457.16959403595047 295.3245290389293" stroke-linecap="round" />
</g>
<g transform="matrix(0.94 0 0 0.94 293.55 370.86)" id="DDp9KcdSAtKiLpaQbnpHw"  >
<path style="stroke: rgb(255,255,255); stroke-width: 1; stroke-dasharray: none; stroke-linecap: round; stroke-dashoffset: 0; stroke-linejoin: round; stroke-miterlimit: 10; fill: none; fill-rule: nonzero; opacity: 1;" vector-effect="non-scaling-stroke"  transform=" translate(-304.92, -399.82)" d="M 169.52714459774822 439.14475375803045 Q 169.52814459774822 439.14375375803047 170.08994235055724 439.14375375803047 Q 170.65174010336625 439.14375375803047 171.77533560898422 438.58195600522146 Q 172.8989311146022 438.02015825241244 174.58432437302912 438.02015825241244 Q 176.26971763145605 438.02015825241244 184.1348861707819 436.33476499398546 Q 192.00005471010775 434.6493717355585 200.98881875505157 432.96397847713155 Q 209.9775827999954 431.2785852187046 220.08994235055718 429.59319196027764 Q 230.20230190111897 427.90779870185065 242.56185246291676 425.6606076906147 Q 254.92140302471455 423.41341667937877 267.2809535865123 420.6044279153338 Q 279.64050414831 417.79543915128886 289.19106594606285 415.5482481400529 Q 298.7416277438157 413.301057128817 312.7865715640404 409.36847285915405 Q 326.8315153842651 405.4358885894911 335.82027942920894 403.1886975782552 Q 344.80904347415276 400.94150656701925 352.67421201347855 398.69431555578325 Q 360.53938055280435 396.44712454454725 367.84275133932124 394.7617312861203 Q 375.14612212583813 393.0763380276934 380.20230190111903 391.3909447692664 Q 385.2584816763999 389.7055515108394 389.19106594606285 388.02015825241244 Q 393.1236502157258 386.33476499398546 398.7416277438156 384.0875739827495 Q 404.3596052719055 381.8403829715136 407.73039178875945 380.1549897130866 Q 411.1011783056134 378.4695964546596 413.34836931684936 377.34600094904164 Q 415.5955603280853 376.22240544342367 417.2809535865123 375.0988099378057 Q 418.96634684493927 373.9752144321877 420.08994235055724 372.85161892656976 Q 421.2135378561752 371.7280234209518 422.3371333617932 370.6044279153338 Q 423.46072886741115 369.48083240971584 424.5843243730291 368.3572369040979 Q 425.7079198786471 367.2336413984799 426.26971763145605 366.6718436456709 Q 426.831515384265 366.1100458928619 427.393313137074 366.1100458928619 Q 427.95511088988303 366.1100458928619 428.51690864269204 365.5482481400529 Q 429.07870639550106 364.98645038724396 429.07870639550106 364.42465263443495 Q 429.07870639550106 363.86285488162594 429.64050414831 363.86285488162594 Q 430.202301901119 363.86285488162594 430.764099653928 363.86285488162594 Q 431.325897406737 363.86285488162594 431.88769515954596 363.301057128817 Q 432.4494929123549 362.739259376008 433.5730884179729 362.739259376008 Q 434.69668392359085 362.739259376008 435.25848167639987 362.177461623199 Q 435.8202794292089 361.61566387039 436.94387493482685 361.61566387039 Q 438.0674704404448 361.61566387039 439.1910659460628 361.053866117581 L 440.31566145168074 360.491068364772" stroke-linecap="round" />
</g>
<g transform="matrix(0 0.38 -0.38 0 155.19 218.76)" id="8"  >
<linearGradient id="SVGID_SVGID_376_6" gradientUnits="userSpaceOnUse" gradientTransform="matrix(1 0 0 1 -50 -50)"  x1="0" y1="50" x2="100" y2="50">
<stop offset="0%" style="stop-color:rgb(247,26,26);stop-opacity: 1"/>
<stop offset="51.07695005206525%" style="stop-color:rgb(228,71,71);stop-opacity: 1"/>
<stop offset="100%" style="stop-color:rgb(255,250,250);stop-opacity: 1"/>
</linearGradient>
<path style="stroke: rgb(255,255,255); stroke-width: 1; stroke-dasharray: none; stroke-linecap: butt; stroke-dashoffset: 0; stroke-linejoin: miter; stroke-miterlimit: 4; fill: url(#SVGID_SVGID_376_6); fill-rule: nonzero; opacity: 1;" vector-effect="non-scaling-stroke"  transform=" translate(0, 0)" d="M 0 -50 C 27.6 -50 50 -27.6 50 0 C 50 27.6 27.6 50 0 50 C -27.6 50 -50 27.6 -50 0 C -50 -27.6 -27.6 -50 0 -50 z" stroke-linecap="round" />
</g>
<g transform="matrix(0 0.59 -0.59 0 328.27 168.47)" id="2"  >
<linearGradient id="SVGID_SVGID_381_7" gradientUnits="userSpaceOnUse" gradientTransform="matrix(1 0 0 1 -50 -50)"  x1="0" y1="50" x2="100" y2="50">
<stop offset="0%" style="stop-color:rgb(247,26,26);stop-opacity: 1"/>
<stop offset="51.07695005206525%" style="stop-color:rgb(228,71,71);stop-opacity: 1"/>
<stop offset="100%" style="stop-color:rgb(255,250,250);stop-opacity: 1"/>
</linearGradient>
<path style="stroke: rgb(255,255,255); stroke-width: 1; stroke-dasharray: none; stroke-linecap: butt; stroke-dashoffset: 0; stroke-linejoin: miter; stroke-miterlimit: 4; fill: url(#SVGID_SVGID_381_7); fill-rule: nonzero; opacity: 1;" vector-effect="non-scaling-stroke"  transform=" translate(0, 0)" d="M 0 -50 C 27.6 -50 50 -27.6 50 0 C 50 27.6 27.6 50 0 50 C -27.6 50 -50 27.6 -50 0 C -50 -27.6 -27.6 -50 0 -50 z" stroke-linecap="round" />
</g>
</svg>